<mxfile host="app.diagrams.net" agent="Mozilla/5.0 (Windows NT 10.0; Win64; x64) AppleWebKit/537.36 (KHTML, like Gecko) Chrome/130.0.0.0 Safari/537.36" version="24.8.6">
  <diagram name="Page-1" id="ff44883e-f642-bcb2-894b-16b3d25a3f0b">
    <mxGraphModel dx="491" dy="526" grid="1" gridSize="10" guides="1" tooltips="1" connect="1" arrows="1" fold="1" page="1" pageScale="1.5" pageWidth="1169" pageHeight="826" background="none" math="0" shadow="0">
      <root>
        <mxCell id="0" style=";html=1;" />
        <mxCell id="1" style=";html=1;" parent="0" />
        <mxCell id="f0bcc99304e6f5a-16" style="edgeStyle=none;curved=1;html=1;startSize=10;endFill=1;endSize=10;strokeWidth=2;fontSize=12;exitX=1;exitY=0.5;exitDx=0;exitDy=0;entryX=0;entryY=0.5;entryDx=0;entryDy=0;" parent="1" source="lmmcrcobdxvMqApZ1ewG-1" target="lmmcrcobdxvMqApZ1ewG-8" edge="1">
          <mxGeometry relative="1" as="geometry">
            <mxPoint x="244.9130363793081" y="700.0012676529466" as="sourcePoint" />
            <mxPoint x="460" y="700.48" as="targetPoint" />
          </mxGeometry>
        </mxCell>
        <mxCell id="f0bcc99304e6f5a-19" value="8" style="text;html=1;resizable=0;points=[];align=center;verticalAlign=middle;labelBackgroundColor=#ffffff;fontSize=20;" parent="f0bcc99304e6f5a-16" vertex="1" connectable="0">
          <mxGeometry x="-0.0743" y="-2" relative="1" as="geometry">
            <mxPoint x="9" y="-28" as="offset" />
          </mxGeometry>
        </mxCell>
        <mxCell id="f0bcc99304e6f5a-17" style="edgeStyle=none;curved=1;html=1;startSize=10;endFill=1;endSize=10;strokeWidth=2;fontSize=12;exitX=1;exitY=0.5;exitDx=0;exitDy=0;entryX=-0.1;entryY=0.467;entryDx=0;entryDy=0;entryPerimeter=0;" parent="1" source="lmmcrcobdxvMqApZ1ewG-8" target="lmmcrcobdxvMqApZ1ewG-25" edge="1">
          <mxGeometry relative="1" as="geometry">
            <mxPoint x="539.9836834584244" y="628.8576090440449" as="sourcePoint" />
            <mxPoint x="630" y="630" as="targetPoint" />
          </mxGeometry>
        </mxCell>
        <mxCell id="lmmcrcobdxvMqApZ1ewG-28" value="Text" style="edgeLabel;html=1;align=center;verticalAlign=middle;resizable=0;points=[];" vertex="1" connectable="0" parent="f0bcc99304e6f5a-17">
          <mxGeometry x="-0.0465" y="2" relative="1" as="geometry">
            <mxPoint y="-23" as="offset" />
          </mxGeometry>
        </mxCell>
        <mxCell id="f0bcc99304e6f5a-8" value="80" style="ellipse;whiteSpace=wrap;html=1;rounded=0;shadow=1;strokeColor=#666666;strokeWidth=4;fontSize=30;align=center;fillColor=#f5f5f5;" parent="1" vertex="1">
          <mxGeometry x="1490" y="570" width="80" height="80" as="geometry" />
        </mxCell>
        <mxCell id="lmmcrcobdxvMqApZ1ewG-13" value="" style="endArrow=classic;html=1;rounded=0;exitX=1;exitY=0;exitDx=0;exitDy=0;entryX=0.075;entryY=0.688;entryDx=0;entryDy=0;entryPerimeter=0;" edge="1" parent="1" source="lmmcrcobdxvMqApZ1ewG-1" target="lmmcrcobdxvMqApZ1ewG-10">
          <mxGeometry relative="1" as="geometry">
            <mxPoint x="320" y="590" as="sourcePoint" />
            <mxPoint x="420" y="590" as="targetPoint" />
          </mxGeometry>
        </mxCell>
        <mxCell id="lmmcrcobdxvMqApZ1ewG-14" value="8" style="edgeLabel;resizable=0;html=1;;align=center;verticalAlign=middle;" connectable="0" vertex="1" parent="lmmcrcobdxvMqApZ1ewG-13">
          <mxGeometry relative="1" as="geometry">
            <mxPoint x="-7" y="-18" as="offset" />
          </mxGeometry>
        </mxCell>
        <mxCell id="lmmcrcobdxvMqApZ1ewG-19" value="" style="group" vertex="1" connectable="0" parent="1">
          <mxGeometry x="250" y="590" width="80" height="80" as="geometry" />
        </mxCell>
        <mxCell id="lmmcrcobdxvMqApZ1ewG-1" value="" style="shape=sumEllipse;perimeter=ellipsePerimeter;whiteSpace=wrap;html=1;backgroundOutline=1;" vertex="1" parent="lmmcrcobdxvMqApZ1ewG-19">
          <mxGeometry width="80" height="80" as="geometry" />
        </mxCell>
        <mxCell id="lmmcrcobdxvMqApZ1ewG-4" value="0" style="text;html=1;align=center;verticalAlign=middle;resizable=0;points=[];autosize=1;strokeColor=none;fillColor=none;" vertex="1" parent="lmmcrcobdxvMqApZ1ewG-19">
          <mxGeometry x="25" y="50" width="30" height="30" as="geometry" />
        </mxCell>
        <mxCell id="lmmcrcobdxvMqApZ1ewG-5" value="0" style="text;html=1;align=center;verticalAlign=middle;resizable=0;points=[];autosize=1;strokeColor=none;fillColor=none;" vertex="1" parent="lmmcrcobdxvMqApZ1ewG-19">
          <mxGeometry y="25" width="30" height="30" as="geometry" />
        </mxCell>
        <mxCell id="lmmcrcobdxvMqApZ1ewG-6" value="0" style="text;html=1;align=center;verticalAlign=middle;resizable=0;points=[];autosize=1;strokeColor=none;fillColor=none;" vertex="1" parent="lmmcrcobdxvMqApZ1ewG-19">
          <mxGeometry x="50" y="25" width="30" height="30" as="geometry" />
        </mxCell>
        <mxCell id="lmmcrcobdxvMqApZ1ewG-16" value="0" style="text;html=1;align=center;verticalAlign=middle;resizable=0;points=[];autosize=1;strokeColor=none;fillColor=none;" vertex="1" parent="lmmcrcobdxvMqApZ1ewG-19">
          <mxGeometry x="25" width="30" height="30" as="geometry" />
        </mxCell>
        <mxCell id="lmmcrcobdxvMqApZ1ewG-21" value="" style="group" vertex="1" connectable="0" parent="1">
          <mxGeometry x="440" y="590" width="80" height="80" as="geometry" />
        </mxCell>
        <mxCell id="lmmcrcobdxvMqApZ1ewG-8" value="" style="shape=sumEllipse;perimeter=ellipsePerimeter;whiteSpace=wrap;html=1;backgroundOutline=1;" vertex="1" parent="lmmcrcobdxvMqApZ1ewG-21">
          <mxGeometry width="80" height="80" as="geometry" />
        </mxCell>
        <mxCell id="lmmcrcobdxvMqApZ1ewG-12" value="2" style="text;html=1;align=center;verticalAlign=middle;resizable=0;points=[];autosize=1;strokeColor=none;fillColor=none;" vertex="1" parent="lmmcrcobdxvMqApZ1ewG-21">
          <mxGeometry x="25" y="50" width="30" height="30" as="geometry" />
        </mxCell>
        <mxCell id="lmmcrcobdxvMqApZ1ewG-3" value="8" style="text;html=1;align=center;verticalAlign=middle;resizable=0;points=[];autosize=1;strokeColor=none;fillColor=none;" vertex="1" parent="lmmcrcobdxvMqApZ1ewG-21">
          <mxGeometry y="25" width="30" height="30" as="geometry" />
        </mxCell>
        <mxCell id="lmmcrcobdxvMqApZ1ewG-18" value="8" style="text;html=1;align=center;verticalAlign=middle;resizable=0;points=[];autosize=1;strokeColor=none;fillColor=none;" vertex="1" parent="lmmcrcobdxvMqApZ1ewG-21">
          <mxGeometry x="50" y="25" width="30" height="30" as="geometry" />
        </mxCell>
        <mxCell id="lmmcrcobdxvMqApZ1ewG-20" value="0" style="text;html=1;align=center;verticalAlign=middle;resizable=0;points=[];autosize=1;strokeColor=none;fillColor=none;" vertex="1" parent="lmmcrcobdxvMqApZ1ewG-21">
          <mxGeometry x="25" y="5" width="30" height="30" as="geometry" />
        </mxCell>
        <mxCell id="lmmcrcobdxvMqApZ1ewG-22" value="" style="group" vertex="1" connectable="0" parent="1">
          <mxGeometry x="590" y="590" width="80" height="80" as="geometry" />
        </mxCell>
        <mxCell id="lmmcrcobdxvMqApZ1ewG-23" value="" style="shape=sumEllipse;perimeter=ellipsePerimeter;whiteSpace=wrap;html=1;backgroundOutline=1;" vertex="1" parent="lmmcrcobdxvMqApZ1ewG-22">
          <mxGeometry width="80" height="80" as="geometry" />
        </mxCell>
        <mxCell id="lmmcrcobdxvMqApZ1ewG-24" value="4" style="text;html=1;align=center;verticalAlign=middle;resizable=0;points=[];autosize=1;strokeColor=none;fillColor=none;" vertex="1" parent="lmmcrcobdxvMqApZ1ewG-22">
          <mxGeometry x="25" y="50" width="30" height="30" as="geometry" />
        </mxCell>
        <mxCell id="lmmcrcobdxvMqApZ1ewG-25" value="0" style="text;html=1;align=center;verticalAlign=middle;resizable=0;points=[];autosize=1;strokeColor=none;fillColor=none;" vertex="1" parent="lmmcrcobdxvMqApZ1ewG-22">
          <mxGeometry y="25" width="30" height="30" as="geometry" />
        </mxCell>
        <mxCell id="lmmcrcobdxvMqApZ1ewG-26" value="0" style="text;html=1;align=center;verticalAlign=middle;resizable=0;points=[];autosize=1;strokeColor=none;fillColor=none;" vertex="1" parent="lmmcrcobdxvMqApZ1ewG-22">
          <mxGeometry x="50" y="25" width="30" height="30" as="geometry" />
        </mxCell>
        <mxCell id="lmmcrcobdxvMqApZ1ewG-27" value="0" style="text;html=1;align=center;verticalAlign=middle;resizable=0;points=[];autosize=1;strokeColor=none;fillColor=none;" vertex="1" parent="lmmcrcobdxvMqApZ1ewG-22">
          <mxGeometry x="25" width="30" height="30" as="geometry" />
        </mxCell>
        <mxCell id="lmmcrcobdxvMqApZ1ewG-29" value="" style="group" vertex="1" connectable="0" parent="1">
          <mxGeometry x="440" y="420" width="80" height="80" as="geometry" />
        </mxCell>
        <mxCell id="lmmcrcobdxvMqApZ1ewG-9" value="1" style="text;html=1;align=center;verticalAlign=middle;resizable=0;points=[];autosize=1;strokeColor=none;fillColor=none;" vertex="1" parent="lmmcrcobdxvMqApZ1ewG-29">
          <mxGeometry x="25" y="50" width="30" height="30" as="geometry" />
        </mxCell>
        <mxCell id="lmmcrcobdxvMqApZ1ewG-10" value="" style="shape=sumEllipse;perimeter=ellipsePerimeter;whiteSpace=wrap;html=1;backgroundOutline=1;" vertex="1" parent="lmmcrcobdxvMqApZ1ewG-29">
          <mxGeometry width="80" height="80" as="geometry" />
        </mxCell>
        <mxCell id="lmmcrcobdxvMqApZ1ewG-11" value="16" style="text;html=1;align=center;verticalAlign=middle;resizable=0;points=[];autosize=1;strokeColor=none;fillColor=none;" vertex="1" parent="lmmcrcobdxvMqApZ1ewG-29">
          <mxGeometry x="20" y="5" width="40" height="30" as="geometry" />
        </mxCell>
        <mxCell id="lmmcrcobdxvMqApZ1ewG-15" value="1" style="text;html=1;align=center;verticalAlign=middle;resizable=0;points=[];autosize=1;strokeColor=none;fillColor=none;" vertex="1" parent="lmmcrcobdxvMqApZ1ewG-29">
          <mxGeometry x="25" y="50" width="30" height="30" as="geometry" />
        </mxCell>
        <mxCell id="lmmcrcobdxvMqApZ1ewG-17" value="8" style="text;html=1;align=center;verticalAlign=middle;resizable=0;points=[];autosize=1;strokeColor=none;fillColor=none;" vertex="1" parent="lmmcrcobdxvMqApZ1ewG-29">
          <mxGeometry y="25" width="30" height="30" as="geometry" />
        </mxCell>
        <mxCell id="lmmcrcobdxvMqApZ1ewG-31" value="" style="endArrow=open;endSize=12;dashed=1;html=1;rounded=0;exitX=0.5;exitY=1;exitDx=0;exitDy=0;" edge="1" parent="1" source="lmmcrcobdxvMqApZ1ewG-10" target="lmmcrcobdxvMqApZ1ewG-20">
          <mxGeometry width="160" relative="1" as="geometry">
            <mxPoint x="440" y="600" as="sourcePoint" />
            <mxPoint x="600" y="600" as="targetPoint" />
          </mxGeometry>
        </mxCell>
        <mxCell id="lmmcrcobdxvMqApZ1ewG-32" value="" style="group" vertex="1" connectable="0" parent="1">
          <mxGeometry x="590" y="420" width="80" height="80" as="geometry" />
        </mxCell>
        <mxCell id="lmmcrcobdxvMqApZ1ewG-33" value="" style="shape=sumEllipse;perimeter=ellipsePerimeter;whiteSpace=wrap;html=1;backgroundOutline=1;" vertex="1" parent="lmmcrcobdxvMqApZ1ewG-32">
          <mxGeometry width="80" height="80" as="geometry" />
        </mxCell>
        <mxCell id="lmmcrcobdxvMqApZ1ewG-34" value="4" style="text;html=1;align=center;verticalAlign=middle;resizable=0;points=[];autosize=1;strokeColor=none;fillColor=none;" vertex="1" parent="lmmcrcobdxvMqApZ1ewG-32">
          <mxGeometry x="25" y="50" width="30" height="30" as="geometry" />
        </mxCell>
        <mxCell id="lmmcrcobdxvMqApZ1ewG-35" value="0" style="text;html=1;align=center;verticalAlign=middle;resizable=0;points=[];autosize=1;strokeColor=none;fillColor=none;" vertex="1" parent="lmmcrcobdxvMqApZ1ewG-32">
          <mxGeometry y="25" width="30" height="30" as="geometry" />
        </mxCell>
        <mxCell id="lmmcrcobdxvMqApZ1ewG-36" value="0" style="text;html=1;align=center;verticalAlign=middle;resizable=0;points=[];autosize=1;strokeColor=none;fillColor=none;" vertex="1" parent="lmmcrcobdxvMqApZ1ewG-32">
          <mxGeometry x="50" y="25" width="30" height="30" as="geometry" />
        </mxCell>
        <mxCell id="lmmcrcobdxvMqApZ1ewG-37" value="0" style="text;html=1;align=center;verticalAlign=middle;resizable=0;points=[];autosize=1;strokeColor=none;fillColor=none;" vertex="1" parent="lmmcrcobdxvMqApZ1ewG-32">
          <mxGeometry x="25" width="30" height="30" as="geometry" />
        </mxCell>
      </root>
    </mxGraphModel>
  </diagram>
</mxfile>
